%TF.GenerationSoftware,KiCad,Pcbnew,9.0.3*%
%TF.CreationDate,2025-12-16T11:33:00+01:00*%
%TF.ProjectId,Crnic_PTP_Project1,43726e69-635f-4505-9450-5f50726f6a65,rev?*%
%TF.SameCoordinates,Original*%
%TF.FileFunction,Soldermask,Top*%
%TF.FilePolarity,Negative*%
%FSLAX46Y46*%
G04 Gerber Fmt 4.6, Leading zero omitted, Abs format (unit mm)*
G04 Created by KiCad (PCBNEW 9.0.3) date 2025-12-16 11:33:00*
%MOMM*%
%LPD*%
G01*
G04 APERTURE LIST*
G04 Aperture macros list*
%AMRoundRect*
0 Rectangle with rounded corners*
0 $1 Rounding radius*
0 $2 $3 $4 $5 $6 $7 $8 $9 X,Y pos of 4 corners*
0 Add a 4 corners polygon primitive as box body*
4,1,4,$2,$3,$4,$5,$6,$7,$8,$9,$2,$3,0*
0 Add four circle primitives for the rounded corners*
1,1,$1+$1,$2,$3*
1,1,$1+$1,$4,$5*
1,1,$1+$1,$6,$7*
1,1,$1+$1,$8,$9*
0 Add four rect primitives between the rounded corners*
20,1,$1+$1,$2,$3,$4,$5,0*
20,1,$1+$1,$4,$5,$6,$7,0*
20,1,$1+$1,$6,$7,$8,$9,0*
20,1,$1+$1,$8,$9,$2,$3,0*%
G04 Aperture macros list end*
%ADD10RoundRect,0.250000X-0.625000X0.400000X-0.625000X-0.400000X0.625000X-0.400000X0.625000X0.400000X0*%
%ADD11R,1.800000X1.800000*%
%ADD12C,1.800000*%
%ADD13RoundRect,0.250000X0.625000X-0.400000X0.625000X0.400000X-0.625000X0.400000X-0.625000X-0.400000X0*%
%ADD14RoundRect,0.250000X-0.950000X-0.550000X0.950000X-0.550000X0.950000X0.550000X-0.950000X0.550000X0*%
%ADD15O,2.400000X1.600000*%
%ADD16RoundRect,0.250000X0.550000X-0.550000X0.550000X0.550000X-0.550000X0.550000X-0.550000X-0.550000X0*%
%ADD17C,1.600000*%
%ADD18RoundRect,0.250000X-0.412500X-0.650000X0.412500X-0.650000X0.412500X0.650000X-0.412500X0.650000X0*%
%ADD19RoundRect,0.250000X-0.400000X-0.625000X0.400000X-0.625000X0.400000X0.625000X-0.400000X0.625000X0*%
%ADD20O,3.500000X2.200000*%
%ADD21R,2.500000X1.500000*%
%ADD22O,2.500000X1.500000*%
%ADD23C,2.400000*%
%ADD24RoundRect,0.250000X-0.650000X0.412500X-0.650000X-0.412500X0.650000X-0.412500X0.650000X0.412500X0*%
%ADD25C,5.500000*%
%ADD26RoundRect,0.250000X-0.550000X-0.550000X0.550000X-0.550000X0.550000X0.550000X-0.550000X0.550000X0*%
%ADD27RoundRect,0.250000X0.950000X0.550000X-0.950000X0.550000X-0.950000X-0.550000X0.950000X-0.550000X0*%
%ADD28C,2.000000*%
%ADD29RoundRect,0.249999X-0.850001X-0.850001X0.850001X-0.850001X0.850001X0.850001X-0.850001X0.850001X0*%
%ADD30C,2.200000*%
%ADD31R,1.600000X1.600000*%
%ADD32RoundRect,0.250000X0.650000X-0.412500X0.650000X0.412500X-0.650000X0.412500X-0.650000X-0.412500X0*%
%ADD33RoundRect,0.150000X0.512500X0.150000X-0.512500X0.150000X-0.512500X-0.150000X0.512500X-0.150000X0*%
%ADD34RoundRect,0.250001X1.149999X-1.149999X1.149999X1.149999X-1.149999X1.149999X-1.149999X-1.149999X0*%
%ADD35C,2.800000*%
G04 APERTURE END LIST*
D10*
%TO.C,R19*%
X104550000Y-105300000D03*
X104550000Y-102200000D03*
%TD*%
D11*
%TO.C,D3*%
X169289087Y-75510000D03*
D12*
X169289087Y-78050000D03*
%TD*%
D13*
%TO.C,R9*%
X151100000Y-119050000D03*
X151100000Y-115950000D03*
%TD*%
D14*
%TO.C,U4*%
X165205000Y-89985000D03*
D15*
X165205000Y-92525000D03*
X165205000Y-95065000D03*
X165205000Y-97605000D03*
X165205000Y-100145000D03*
X165205000Y-102685000D03*
X165205000Y-105225000D03*
X165205000Y-107765000D03*
X172825000Y-107765000D03*
X172825000Y-105225000D03*
X172825000Y-102685000D03*
X172825000Y-100145000D03*
X172825000Y-97605000D03*
X172825000Y-95065000D03*
X172825000Y-92525000D03*
X172825000Y-89985000D03*
%TD*%
D16*
%TO.C,C2*%
X140125000Y-72375000D03*
D17*
X140125000Y-70375000D03*
%TD*%
D18*
%TO.C,C4*%
X110360000Y-112930000D03*
X113485000Y-112930000D03*
%TD*%
D13*
%TO.C,R13*%
X146075000Y-119075000D03*
X146075000Y-115975000D03*
%TD*%
D17*
%TO.C,R4*%
X177325000Y-68955000D03*
X177325000Y-58795000D03*
%TD*%
D19*
%TO.C,R8*%
X178379087Y-104779087D03*
X181479087Y-104779087D03*
%TD*%
D11*
%TO.C,D5*%
X177339087Y-75300000D03*
D12*
X177339087Y-77840000D03*
%TD*%
D17*
%TO.C,R3*%
X169200000Y-68955000D03*
X169200000Y-58795000D03*
%TD*%
D19*
%TO.C,R14*%
X178500000Y-108500000D03*
X181600000Y-108500000D03*
%TD*%
%TO.C,R18*%
X178479087Y-94354087D03*
X181579087Y-94354087D03*
%TD*%
D13*
%TO.C,R10*%
X153625000Y-119075000D03*
X153625000Y-115975000D03*
%TD*%
D19*
%TO.C,R16*%
X178479087Y-96879087D03*
X181579087Y-96879087D03*
%TD*%
D14*
%TO.C,U2*%
X138205000Y-89985000D03*
D15*
X138205000Y-92525000D03*
X138205000Y-95065000D03*
X138205000Y-97605000D03*
X138205000Y-100145000D03*
X138205000Y-102685000D03*
X138205000Y-105225000D03*
X138205000Y-107765000D03*
X145825000Y-107765000D03*
X145825000Y-105225000D03*
X145825000Y-102685000D03*
X145825000Y-100145000D03*
X145825000Y-97605000D03*
X145825000Y-95065000D03*
X145825000Y-92525000D03*
X145825000Y-89985000D03*
%TD*%
D10*
%TO.C,R20*%
X104550000Y-107425000D03*
X104550000Y-110525000D03*
%TD*%
D20*
%TO.C,SW2*%
X123350000Y-96100000D03*
X123350000Y-104300000D03*
D21*
X123350000Y-98200000D03*
D22*
X123350000Y-100200000D03*
X123350000Y-102200000D03*
%TD*%
D11*
%TO.C,D1*%
X153550000Y-75475000D03*
D12*
X153550000Y-78015000D03*
%TD*%
D16*
%TO.C,C1*%
X117575000Y-72125000D03*
D17*
X117575000Y-70125000D03*
%TD*%
D23*
%TO.C,L1*%
X140075000Y-81575000D03*
X140075000Y-78575000D03*
%TD*%
D24*
%TO.C,C5*%
X117960000Y-107342500D03*
X117960000Y-110467500D03*
%TD*%
D25*
%TO.C,H1*%
X190110913Y-64610913D03*
%TD*%
D14*
%TO.C,U3*%
X151705000Y-89985000D03*
D15*
X151705000Y-92525000D03*
X151705000Y-95065000D03*
X151705000Y-97605000D03*
X151705000Y-100145000D03*
X151705000Y-102685000D03*
X151705000Y-105225000D03*
X151705000Y-107765000D03*
X159325000Y-107765000D03*
X159325000Y-105225000D03*
X159325000Y-102685000D03*
X159325000Y-100145000D03*
X159325000Y-97605000D03*
X159325000Y-95065000D03*
X159325000Y-92525000D03*
X159325000Y-89985000D03*
%TD*%
D26*
%TO.C,U5*%
X107355000Y-102245000D03*
D17*
X107355000Y-104785000D03*
X107355000Y-107325000D03*
X107355000Y-109865000D03*
X114975000Y-109865000D03*
X114975000Y-107325000D03*
X114975000Y-104785000D03*
X114975000Y-102245000D03*
%TD*%
D27*
%TO.C,U1*%
X133785000Y-78610000D03*
D15*
X133785000Y-76070000D03*
X133785000Y-73530000D03*
X133785000Y-70990000D03*
X126165000Y-70990000D03*
X126165000Y-73530000D03*
X126165000Y-76070000D03*
X126165000Y-78610000D03*
%TD*%
D28*
%TO.C,SW1*%
X156475000Y-125400000D03*
X162975000Y-125400000D03*
X156475000Y-129900000D03*
X162975000Y-129900000D03*
%TD*%
D29*
%TO.C,D4*%
X124975000Y-62800000D03*
D30*
X137675000Y-62800000D03*
%TD*%
D13*
%TO.C,R7*%
X148600000Y-119075000D03*
X148600000Y-115975000D03*
%TD*%
%TO.C,R11*%
X156325000Y-119050000D03*
X156325000Y-115950000D03*
%TD*%
D17*
%TO.C,R2*%
X161625000Y-69155000D03*
X161625000Y-58995000D03*
%TD*%
D25*
%TO.C,H4*%
X110110913Y-64610913D03*
%TD*%
D31*
%TO.C,U7*%
X187424087Y-93119087D03*
D17*
X187424087Y-95659087D03*
X187424087Y-98199087D03*
X187424087Y-100739087D03*
X187424087Y-103279087D03*
X192504087Y-103279087D03*
X192504087Y-100739087D03*
X192504087Y-98199087D03*
X192504087Y-95659087D03*
X192504087Y-93119087D03*
%TD*%
D32*
%TO.C,C3*%
X143525000Y-119087500D03*
X143525000Y-115962500D03*
%TD*%
D33*
%TO.C,U6*%
X131722500Y-98925000D03*
X131722500Y-97975000D03*
X131722500Y-97025000D03*
X129447500Y-97025000D03*
X129447500Y-97975000D03*
X129447500Y-98925000D03*
%TD*%
D25*
%TO.C,H3*%
X110110913Y-124610913D03*
%TD*%
D17*
%TO.C,R1*%
X153500000Y-69160000D03*
X153500000Y-59000000D03*
%TD*%
D13*
%TO.C,R12*%
X158850000Y-119100000D03*
X158850000Y-116000000D03*
%TD*%
D34*
%TO.C,J1*%
X110067500Y-84400000D03*
D35*
X110067500Y-79400000D03*
%TD*%
D25*
%TO.C,H2*%
X190110913Y-124610913D03*
%TD*%
D19*
%TO.C,R6*%
X178379087Y-102079087D03*
X181479087Y-102079087D03*
%TD*%
D11*
%TO.C,D2*%
X161439087Y-75385000D03*
D12*
X161439087Y-77925000D03*
%TD*%
D19*
%TO.C,R17*%
X178479087Y-91000000D03*
X181579087Y-91000000D03*
%TD*%
%TO.C,R15*%
X178454087Y-87500000D03*
X181554087Y-87500000D03*
%TD*%
%TO.C,R5*%
X178429087Y-99454087D03*
X181529087Y-99454087D03*
%TD*%
M02*
