M48
; DRILL file {KiCad 9.0.3} date 2025-12-16T11:32:49+0100
; FORMAT={-:-/ absolute / metric / decimal}
; #@! TF.CreationDate,2025-12-16T11:32:49+01:00
; #@! TF.GenerationSoftware,Kicad,Pcbnew,9.0.3
; #@! TF.FileFunction,MixedPlating,1,2
FMAT,2
METRIC
; #@! TA.AperFunction,Plated,PTH,ViaDrill
T1C0.300
; #@! TA.AperFunction,Plated,PTH,ComponentDrill
T2C0.800
; #@! TA.AperFunction,Plated,PTH,ComponentDrill
T3C0.900
; #@! TA.AperFunction,Plated,PTH,ComponentDrill
T4C1.100
; #@! TA.AperFunction,Plated,PTH,ComponentDrill
T5C1.200
; #@! TA.AperFunction,Plated,PTH,ComponentDrill
T6C1.400
; #@! TA.AperFunction,Plated,PTH,ComponentDrill
T7C1.500
; #@! TA.AperFunction,NonPlated,NPTH,ComponentDrill
T8C5.500
%
G90
G05
T1
X108.975Y-106.8
X109.25Y-100.325
X109.9Y-104.75
X109.9Y-106.15
X111.2Y-106.85
X111.55Y-104.75
X112.6Y-106.675
X112.675Y-107.975
X114.975Y-99.55
X114.975Y-100.85
X129.885Y-101.5
X130.5Y-106.5
X130.535Y-104.465
X131.0Y-95.0
X131.185Y-101.5
X131.875Y-82.375
X132.322Y-95.0
X132.9Y-99.0
X132.9Y-100.9
X133.075Y-80.825
X133.826Y-97.174
X134.1Y-99.0
X134.1Y-101.0
X134.5Y-96.0
X134.826Y-99.826
X135.5Y-101.0
X140.5Y-95.0
X140.5Y-98.205
X141.5Y-97.0
X141.5Y-98.5
X142.0Y-93.0
X143.0Y-109.45
X143.0Y-110.75
X143.6Y-93.0
X145.5Y-84.5
X145.5Y-122.0
X147.0Y-83.0
X148.225Y-122.725
X148.242Y-84.242
X148.5Y-99.6
X148.75Y-85.0
X149.0Y-98.4
X149.5Y-121.5
X150.325Y-122.725
X154.875Y-94.475
X156.225Y-93.125
X160.0Y-86.5
X161.185Y-87.685
X161.65Y-92.525
X161.725Y-90.125
X161.875Y-85.55
X162.0Y-94.5
X162.145Y-96.645
X162.738Y-88.437
X162.925Y-87.05
X163.975Y-87.8
X164.725Y-87.2
X165.85Y-85.725
X168.15Y-83.75
X168.525Y-85.725
X168.525Y-87.575
X170.025Y-83.9
X175.5Y-106.0
X176.0Y-97.0
X182.978Y-97.553
X183.835Y-98.535
X184.3Y-98.938
X184.725Y-97.725
X184.752Y-96.35
X184.975Y-100.238
T2
X107.355Y-102.245
X107.355Y-104.785
X107.355Y-107.325
X107.355Y-109.865
X114.975Y-102.245
X114.975Y-104.785
X114.975Y-107.325
X114.975Y-109.865
X117.575Y-70.125
X117.575Y-72.125
X123.35Y-98.2
X123.35Y-100.2
X123.35Y-102.2
X126.165Y-70.99
X126.165Y-73.53
X126.165Y-76.07
X126.165Y-78.61
X133.785Y-70.99
X133.785Y-73.53
X133.785Y-76.07
X133.785Y-78.61
X138.205Y-89.985
X138.205Y-92.525
X138.205Y-95.065
X138.205Y-97.605
X138.205Y-100.145
X138.205Y-102.685
X138.205Y-105.225
X138.205Y-107.765
X140.125Y-70.375
X140.125Y-72.375
X145.825Y-89.985
X145.825Y-92.525
X145.825Y-95.065
X145.825Y-97.605
X145.825Y-100.145
X145.825Y-102.685
X145.825Y-105.225
X145.825Y-107.765
X151.705Y-89.985
X151.705Y-92.525
X151.705Y-95.065
X151.705Y-97.605
X151.705Y-100.145
X151.705Y-102.685
X151.705Y-105.225
X151.705Y-107.765
X153.5Y-59.0
X153.5Y-69.16
X159.325Y-89.985
X159.325Y-92.525
X159.325Y-95.065
X159.325Y-97.605
X159.325Y-100.145
X159.325Y-102.685
X159.325Y-105.225
X159.325Y-107.765
X161.625Y-58.995
X161.625Y-69.155
X165.205Y-89.985
X165.205Y-92.525
X165.205Y-95.065
X165.205Y-97.605
X165.205Y-100.145
X165.205Y-102.685
X165.205Y-105.225
X165.205Y-107.765
X169.2Y-58.795
X169.2Y-68.955
X172.825Y-89.985
X172.825Y-92.525
X172.825Y-95.065
X172.825Y-97.605
X172.825Y-100.145
X172.825Y-102.685
X172.825Y-105.225
X172.825Y-107.765
X177.325Y-58.795
X177.325Y-68.955
X187.424Y-93.119
X187.424Y-95.659
X187.424Y-98.199
X187.424Y-100.739
X187.424Y-103.279
X192.504Y-93.119
X192.504Y-95.659
X192.504Y-98.199
X192.504Y-100.739
X192.504Y-103.279
T3
X153.55Y-75.475
X153.55Y-78.015
X161.439Y-75.385
X161.439Y-77.925
X169.289Y-75.51
X169.289Y-78.05
X177.339Y-75.3
X177.339Y-77.84
T4
X124.975Y-62.8
X137.675Y-62.8
X156.475Y-125.4
X156.475Y-129.9
X162.975Y-125.4
X162.975Y-129.9
T5
X140.075Y-78.575
X140.075Y-81.575
T6
X110.067Y-79.4
X110.067Y-84.4
T7
X123.35Y-96.1
X123.35Y-104.3
T8
X110.111Y-64.611
X110.111Y-124.611
X190.111Y-64.611
X190.111Y-124.611
M30
