%TF.GenerationSoftware,KiCad,Pcbnew,9.0.3*%
%TF.CreationDate,2025-12-16T11:33:00+01:00*%
%TF.ProjectId,Crnic_PTP_Project1,43726e69-635f-4505-9450-5f50726f6a65,rev?*%
%TF.SameCoordinates,Original*%
%TF.FileFunction,Copper,L1,Top*%
%TF.FilePolarity,Positive*%
%FSLAX46Y46*%
G04 Gerber Fmt 4.6, Leading zero omitted, Abs format (unit mm)*
G04 Created by KiCad (PCBNEW 9.0.3) date 2025-12-16 11:33:00*
%MOMM*%
%LPD*%
G01*
G04 APERTURE LIST*
G04 Aperture macros list*
%AMRoundRect*
0 Rectangle with rounded corners*
0 $1 Rounding radius*
0 $2 $3 $4 $5 $6 $7 $8 $9 X,Y pos of 4 corners*
0 Add a 4 corners polygon primitive as box body*
4,1,4,$2,$3,$4,$5,$6,$7,$8,$9,$2,$3,0*
0 Add four circle primitives for the rounded corners*
1,1,$1+$1,$2,$3*
1,1,$1+$1,$4,$5*
1,1,$1+$1,$6,$7*
1,1,$1+$1,$8,$9*
0 Add four rect primitives between the rounded corners*
20,1,$1+$1,$2,$3,$4,$5,0*
20,1,$1+$1,$4,$5,$6,$7,0*
20,1,$1+$1,$6,$7,$8,$9,0*
20,1,$1+$1,$8,$9,$2,$3,0*%
G04 Aperture macros list end*
%TA.AperFunction,SMDPad,CuDef*%
%ADD10RoundRect,0.250000X-0.625000X0.400000X-0.625000X-0.400000X0.625000X-0.400000X0.625000X0.400000X0*%
%TD*%
%TA.AperFunction,ComponentPad*%
%ADD11R,1.800000X1.800000*%
%TD*%
%TA.AperFunction,ComponentPad*%
%ADD12C,1.800000*%
%TD*%
%TA.AperFunction,SMDPad,CuDef*%
%ADD13RoundRect,0.250000X0.625000X-0.400000X0.625000X0.400000X-0.625000X0.400000X-0.625000X-0.400000X0*%
%TD*%
%TA.AperFunction,ComponentPad*%
%ADD14RoundRect,0.250000X-0.950000X-0.550000X0.950000X-0.550000X0.950000X0.550000X-0.950000X0.550000X0*%
%TD*%
%TA.AperFunction,ComponentPad*%
%ADD15O,2.400000X1.600000*%
%TD*%
%TA.AperFunction,ComponentPad*%
%ADD16RoundRect,0.250000X0.550000X-0.550000X0.550000X0.550000X-0.550000X0.550000X-0.550000X-0.550000X0*%
%TD*%
%TA.AperFunction,ComponentPad*%
%ADD17C,1.600000*%
%TD*%
%TA.AperFunction,SMDPad,CuDef*%
%ADD18RoundRect,0.250000X-0.412500X-0.650000X0.412500X-0.650000X0.412500X0.650000X-0.412500X0.650000X0*%
%TD*%
%TA.AperFunction,SMDPad,CuDef*%
%ADD19RoundRect,0.250000X-0.400000X-0.625000X0.400000X-0.625000X0.400000X0.625000X-0.400000X0.625000X0*%
%TD*%
%TA.AperFunction,ComponentPad*%
%ADD20O,3.500000X2.200000*%
%TD*%
%TA.AperFunction,ComponentPad*%
%ADD21R,2.500000X1.500000*%
%TD*%
%TA.AperFunction,ComponentPad*%
%ADD22O,2.500000X1.500000*%
%TD*%
%TA.AperFunction,ComponentPad*%
%ADD23C,2.400000*%
%TD*%
%TA.AperFunction,SMDPad,CuDef*%
%ADD24RoundRect,0.250000X-0.650000X0.412500X-0.650000X-0.412500X0.650000X-0.412500X0.650000X0.412500X0*%
%TD*%
%TA.AperFunction,ComponentPad*%
%ADD25RoundRect,0.250000X-0.550000X-0.550000X0.550000X-0.550000X0.550000X0.550000X-0.550000X0.550000X0*%
%TD*%
%TA.AperFunction,ComponentPad*%
%ADD26RoundRect,0.250000X0.950000X0.550000X-0.950000X0.550000X-0.950000X-0.550000X0.950000X-0.550000X0*%
%TD*%
%TA.AperFunction,ComponentPad*%
%ADD27C,2.000000*%
%TD*%
%TA.AperFunction,ComponentPad*%
%ADD28RoundRect,0.249999X-0.850001X-0.850001X0.850001X-0.850001X0.850001X0.850001X-0.850001X0.850001X0*%
%TD*%
%TA.AperFunction,ComponentPad*%
%ADD29C,2.200000*%
%TD*%
%TA.AperFunction,ComponentPad*%
%ADD30R,1.600000X1.600000*%
%TD*%
%TA.AperFunction,SMDPad,CuDef*%
%ADD31RoundRect,0.250000X0.650000X-0.412500X0.650000X0.412500X-0.650000X0.412500X-0.650000X-0.412500X0*%
%TD*%
%TA.AperFunction,SMDPad,CuDef*%
%ADD32RoundRect,0.150000X0.512500X0.150000X-0.512500X0.150000X-0.512500X-0.150000X0.512500X-0.150000X0*%
%TD*%
%TA.AperFunction,ComponentPad*%
%ADD33RoundRect,0.250001X1.149999X-1.149999X1.149999X1.149999X-1.149999X1.149999X-1.149999X-1.149999X0*%
%TD*%
%TA.AperFunction,ComponentPad*%
%ADD34C,2.800000*%
%TD*%
%TA.AperFunction,ViaPad*%
%ADD35C,0.600000*%
%TD*%
%TA.AperFunction,Conductor*%
%ADD36C,0.300000*%
%TD*%
%TA.AperFunction,Conductor*%
%ADD37C,0.200000*%
%TD*%
%TA.AperFunction,Conductor*%
%ADD38C,0.500000*%
%TD*%
G04 APERTURE END LIST*
D10*
%TO.P,R19,2*%
%TO.N,Net-(U5-DIS)*%
X104550000Y-105300000D03*
%TO.P,R19,1*%
%TO.N,+5V*%
X104550000Y-102200000D03*
%TD*%
D11*
%TO.P,D3,1,K*%
%TO.N,Net-(D3-K)*%
X169289087Y-75510000D03*
D12*
%TO.P,D3,2,A*%
%TO.N,Q2*%
X169289087Y-78050000D03*
%TD*%
D13*
%TO.P,R9,1*%
%TO.N,+5V*%
X151100000Y-119050000D03*
%TO.P,R9,2*%
%TO.N,Net-(U2A-J)*%
X151100000Y-115950000D03*
%TD*%
D14*
%TO.P,U4,1,B*%
%TO.N,Q1*%
X165205000Y-89985000D03*
D15*
%TO.P,U4,2,C*%
%TO.N,Q2*%
X165205000Y-92525000D03*
%TO.P,U4,3,LT*%
%TO.N,Net-(U4-BI)*%
X165205000Y-95065000D03*
%TO.P,U4,4,BI*%
X165205000Y-97605000D03*
%TO.P,U4,5,RBI*%
X165205000Y-100145000D03*
%TO.P,U4,6,D*%
%TO.N,Q3*%
X165205000Y-102685000D03*
%TO.P,U4,7,A*%
%TO.N,Q0*%
X165205000Y-105225000D03*
%TO.P,U4,8,GND*%
%TO.N,GND*%
X165205000Y-107765000D03*
%TO.P,U4,9,e*%
%TO.N,Net-(U4-e)*%
X172825000Y-107765000D03*
%TO.P,U4,10,d*%
%TO.N,Net-(U4-d)*%
X172825000Y-105225000D03*
%TO.P,U4,11,c*%
%TO.N,Net-(U4-c)*%
X172825000Y-102685000D03*
%TO.P,U4,12,b*%
%TO.N,Net-(U4-b)*%
X172825000Y-100145000D03*
%TO.P,U4,13,a*%
%TO.N,Net-(U4-a)*%
X172825000Y-97605000D03*
%TO.P,U4,14,g*%
%TO.N,Net-(U4-g)*%
X172825000Y-95065000D03*
%TO.P,U4,15,f*%
%TO.N,Net-(U4-f)*%
X172825000Y-92525000D03*
%TO.P,U4,16,VCC*%
%TO.N,+5V*%
X172825000Y-89985000D03*
%TD*%
D16*
%TO.P,C2,1*%
%TO.N,+5V*%
X140125000Y-72375000D03*
D17*
%TO.P,C2,2*%
%TO.N,GND*%
X140125000Y-70375000D03*
%TD*%
D18*
%TO.P,C4,1*%
%TO.N,+5V*%
X110360000Y-112930000D03*
%TO.P,C4,2*%
%TO.N,GND*%
X113485000Y-112930000D03*
%TD*%
D13*
%TO.P,R13,1*%
%TO.N,Net-(R13-Pad1)*%
X146075000Y-119075000D03*
%TO.P,R13,2*%
%TO.N,Net-(SW2-C)*%
X146075000Y-115975000D03*
%TD*%
D17*
%TO.P,R4,1*%
%TO.N,Net-(D5-K)*%
X177325000Y-68955000D03*
%TO.P,R4,2*%
%TO.N,GND*%
X177325000Y-58795000D03*
%TD*%
D19*
%TO.P,R8,1*%
%TO.N,Net-(U4-c)*%
X178379087Y-104779087D03*
%TO.P,R8,2*%
%TO.N,Net-(U7-C)*%
X181479087Y-104779087D03*
%TD*%
D11*
%TO.P,D5,1,K*%
%TO.N,Net-(D5-K)*%
X177339087Y-75300000D03*
D12*
%TO.P,D5,2,A*%
%TO.N,Q3*%
X177339087Y-77840000D03*
%TD*%
D17*
%TO.P,R3,1*%
%TO.N,Net-(D3-K)*%
X169200000Y-68955000D03*
%TO.P,R3,2*%
%TO.N,GND*%
X169200000Y-58795000D03*
%TD*%
D19*
%TO.P,R14,1*%
%TO.N,Net-(U4-d)*%
X178500000Y-108500000D03*
%TO.P,R14,2*%
%TO.N,Net-(U7-D)*%
X181600000Y-108500000D03*
%TD*%
%TO.P,R18,1*%
%TO.N,Net-(U4-g)*%
X178479087Y-94354087D03*
%TO.P,R18,2*%
%TO.N,Net-(U7-G)*%
X181579087Y-94354087D03*
%TD*%
D13*
%TO.P,R10,1*%
%TO.N,+5V*%
X153625000Y-119075000D03*
%TO.P,R10,2*%
%TO.N,Net-(U2B-J)*%
X153625000Y-115975000D03*
%TD*%
D19*
%TO.P,R16,1*%
%TO.N,Net-(U4-e)*%
X178479087Y-96879087D03*
%TO.P,R16,2*%
%TO.N,Net-(U7-E)*%
X181579087Y-96879087D03*
%TD*%
D14*
%TO.P,U2,1,Q*%
%TO.N,Q0*%
X138205000Y-89985000D03*
D15*
%TO.P,U2,2,~{Q}*%
%TO.N,unconnected-(U2A-~{Q}-Pad2)*%
X138205000Y-92525000D03*
%TO.P,U2,3,C*%
%TO.N,Clock*%
X138205000Y-95065000D03*
%TO.P,U2,4,S*%
%TO.N,Reset*%
X138205000Y-97605000D03*
%TO.P,U2,5,J*%
%TO.N,Net-(U2A-J)*%
X138205000Y-100145000D03*
%TO.P,U2,6,K*%
X138205000Y-102685000D03*
%TO.P,U2,7,R*%
%TO.N,GND*%
X138205000Y-105225000D03*
%TO.P,U2,8,VSS*%
X138205000Y-107765000D03*
%TO.P,U2,9,R*%
X145825000Y-107765000D03*
%TO.P,U2,10,K*%
%TO.N,Net-(U2B-J)*%
X145825000Y-105225000D03*
%TO.P,U2,11,J*%
X145825000Y-102685000D03*
%TO.P,U2,12,S*%
%TO.N,Reset*%
X145825000Y-100145000D03*
%TO.P,U2,13,C*%
%TO.N,Q0*%
X145825000Y-97605000D03*
%TO.P,U2,14,~{Q}*%
%TO.N,unconnected-(U2B-~{Q}-Pad14)*%
X145825000Y-95065000D03*
%TO.P,U2,15,Q*%
%TO.N,Q1*%
X145825000Y-92525000D03*
%TO.P,U2,16,VDD*%
%TO.N,+5V*%
X145825000Y-89985000D03*
%TD*%
D10*
%TO.P,R20,1*%
%TO.N,Net-(U5-DIS)*%
X104550000Y-107425000D03*
%TO.P,R20,2*%
%TO.N,Net-(U5-THR)*%
X104550000Y-110525000D03*
%TD*%
D20*
%TO.P,SW2,*%
%TO.N,*%
X123350000Y-96100000D03*
X123350000Y-104300000D03*
D21*
%TO.P,SW2,1,B*%
%TO.N,Clock*%
X123350000Y-98200000D03*
D22*
%TO.P,SW2,2,A*%
%TO.N,555*%
X123350000Y-100200000D03*
%TO.P,SW2,3,C*%
%TO.N,Net-(SW2-C)*%
X123350000Y-102200000D03*
%TD*%
D11*
%TO.P,D1,1,K*%
%TO.N,Net-(D1-K)*%
X153550000Y-75475000D03*
D12*
%TO.P,D1,2,A*%
%TO.N,Q0*%
X153550000Y-78015000D03*
%TD*%
D16*
%TO.P,C1,1*%
%TO.N,VD*%
X117575000Y-72125000D03*
D17*
%TO.P,C1,2*%
%TO.N,GND*%
X117575000Y-70125000D03*
%TD*%
D23*
%TO.P,L1,1,1*%
%TO.N,Net-(D4-K)*%
X140075000Y-81575000D03*
%TO.P,L1,2,2*%
%TO.N,+5V*%
X140075000Y-78575000D03*
%TD*%
D24*
%TO.P,C5,1*%
%TO.N,Net-(U5-THR)*%
X117960000Y-107342500D03*
%TO.P,C5,2*%
%TO.N,GND*%
X117960000Y-110467500D03*
%TD*%
D14*
%TO.P,U3,1,Q*%
%TO.N,Q2*%
X151705000Y-89985000D03*
D15*
%TO.P,U3,2,~{Q}*%
%TO.N,unconnected-(U3A-~{Q}-Pad2)*%
X151705000Y-92525000D03*
%TO.P,U3,3,C*%
%TO.N,Q1*%
X151705000Y-95065000D03*
%TO.P,U3,4,S*%
%TO.N,Reset*%
X151705000Y-97605000D03*
%TO.P,U3,5,J*%
%TO.N,Net-(U3A-J)*%
X151705000Y-100145000D03*
%TO.P,U3,6,K*%
X151705000Y-102685000D03*
%TO.P,U3,7,R*%
%TO.N,GND*%
X151705000Y-105225000D03*
%TO.P,U3,8,VSS*%
X151705000Y-107765000D03*
%TO.P,U3,9,R*%
X159325000Y-107765000D03*
%TO.P,U3,10,K*%
%TO.N,Net-(U3B-J)*%
X159325000Y-105225000D03*
%TO.P,U3,11,J*%
X159325000Y-102685000D03*
%TO.P,U3,12,S*%
%TO.N,Reset*%
X159325000Y-100145000D03*
%TO.P,U3,13,C*%
%TO.N,Q2*%
X159325000Y-97605000D03*
%TO.P,U3,14,~{Q}*%
%TO.N,unconnected-(U3B-~{Q}-Pad14)*%
X159325000Y-95065000D03*
%TO.P,U3,15,Q*%
%TO.N,Q3*%
X159325000Y-92525000D03*
%TO.P,U3,16,VDD*%
%TO.N,+5V*%
X159325000Y-89985000D03*
%TD*%
D25*
%TO.P,U5,1,GND*%
%TO.N,GND*%
X107355000Y-102245000D03*
D17*
%TO.P,U5,2,TR*%
%TO.N,Net-(U5-THR)*%
X107355000Y-104785000D03*
%TO.P,U5,3,Q*%
%TO.N,555*%
X107355000Y-107325000D03*
%TO.P,U5,4,R*%
%TO.N,+5V*%
X107355000Y-109865000D03*
%TO.P,U5,5,CV*%
%TO.N,unconnected-(U5-CV-Pad5)*%
X114975000Y-109865000D03*
%TO.P,U5,6,THR*%
%TO.N,Net-(U5-THR)*%
X114975000Y-107325000D03*
%TO.P,U5,7,DIS*%
%TO.N,Net-(U5-DIS)*%
X114975000Y-104785000D03*
%TO.P,U5,8,VCC*%
%TO.N,+5V*%
X114975000Y-102245000D03*
%TD*%
D26*
%TO.P,U1,1,FB*%
%TO.N,+5V*%
X133785000Y-78610000D03*
D15*
%TO.P,U1,2,SGND*%
%TO.N,GND*%
X133785000Y-76070000D03*
%TO.P,U1,3,~{ON}/OFF*%
X133785000Y-73530000D03*
%TO.P,U1,4,PGND*%
X133785000Y-70990000D03*
%TO.P,U1,5,VIN*%
%TO.N,VD*%
X126165000Y-70990000D03*
%TO.P,U1,6,NC*%
%TO.N,unconnected-(U1-NC-Pad6)*%
X126165000Y-73530000D03*
%TO.P,U1,7,OUT*%
%TO.N,Net-(D4-K)*%
X126165000Y-76070000D03*
%TO.P,U1,8,NC*%
%TO.N,unconnected-(U1-NC-Pad8)*%
X126165000Y-78610000D03*
%TD*%
D27*
%TO.P,SW1,1,1*%
%TO.N,GND*%
X156475000Y-125400000D03*
X162975000Y-125400000D03*
%TO.P,SW1,2,2*%
%TO.N,Net-(R13-Pad1)*%
X156475000Y-129900000D03*
X162975000Y-129900000D03*
%TD*%
D28*
%TO.P,D4,1,K*%
%TO.N,Net-(D4-K)*%
X124975000Y-62800000D03*
D29*
%TO.P,D4,2,A*%
%TO.N,GND*%
X137675000Y-62800000D03*
%TD*%
D13*
%TO.P,R7,1*%
%TO.N,+5V*%
X148600000Y-119075000D03*
%TO.P,R7,2*%
%TO.N,Clock*%
X148600000Y-115975000D03*
%TD*%
%TO.P,R11,1*%
%TO.N,+5V*%
X156325000Y-119050000D03*
%TO.P,R11,2*%
%TO.N,Net-(U3A-J)*%
X156325000Y-115950000D03*
%TD*%
D17*
%TO.P,R2,1*%
%TO.N,Net-(D2-K)*%
X161625000Y-69155000D03*
%TO.P,R2,2*%
%TO.N,GND*%
X161625000Y-58995000D03*
%TD*%
D30*
%TO.P,U7,1,CA*%
%TO.N,+5V*%
X187424087Y-93119087D03*
D17*
%TO.P,U7,2,F*%
%TO.N,Net-(U7-F)*%
X187424087Y-95659087D03*
%TO.P,U7,3,G*%
%TO.N,Net-(U7-G)*%
X187424087Y-98199087D03*
%TO.P,U7,4,E*%
%TO.N,Net-(U7-E)*%
X187424087Y-100739087D03*
%TO.P,U7,5,D*%
%TO.N,Net-(U7-D)*%
X187424087Y-103279087D03*
%TO.P,U7,6,CA*%
%TO.N,+5V*%
X192504087Y-103279087D03*
%TO.P,U7,7,DP*%
%TO.N,unconnected-(U7-DP-Pad7)*%
X192504087Y-100739087D03*
%TO.P,U7,8,C*%
%TO.N,Net-(U7-C)*%
X192504087Y-98199087D03*
%TO.P,U7,9,B*%
%TO.N,Net-(U7-B)*%
X192504087Y-95659087D03*
%TO.P,U7,10,A*%
%TO.N,Net-(U7-A)*%
X192504087Y-93119087D03*
%TD*%
D31*
%TO.P,C3,1*%
%TO.N,GND*%
X143525000Y-119087500D03*
%TO.P,C3,2*%
%TO.N,Net-(SW2-C)*%
X143525000Y-115962500D03*
%TD*%
D32*
%TO.P,U6,1,A*%
%TO.N,Q1*%
X131722500Y-98925000D03*
%TO.P,U6,2,GND*%
%TO.N,GND*%
X131722500Y-97975000D03*
%TO.P,U6,3,B*%
%TO.N,Q3*%
X131722500Y-97025000D03*
%TO.P,U6,4,Y*%
%TO.N,Reset*%
X129447500Y-97025000D03*
%TO.P,U6,5,VCC*%
%TO.N,+5V*%
X129447500Y-97975000D03*
%TO.P,U6,6,C*%
%TO.N,Clock*%
X129447500Y-98925000D03*
%TD*%
D17*
%TO.P,R1,1*%
%TO.N,Net-(D1-K)*%
X153500000Y-69160000D03*
%TO.P,R1,2*%
%TO.N,GND*%
X153500000Y-59000000D03*
%TD*%
D13*
%TO.P,R12,1*%
%TO.N,+5V*%
X158850000Y-119100000D03*
%TO.P,R12,2*%
%TO.N,Net-(U3B-J)*%
X158850000Y-116000000D03*
%TD*%
D33*
%TO.P,J1,1,Pin_1*%
%TO.N,GND*%
X110067500Y-84400000D03*
D34*
%TO.P,J1,2,Pin_2*%
%TO.N,VD*%
X110067500Y-79400000D03*
%TD*%
D19*
%TO.P,R6,1*%
%TO.N,Net-(U4-b)*%
X178379087Y-102079087D03*
%TO.P,R6,2*%
%TO.N,Net-(U7-B)*%
X181479087Y-102079087D03*
%TD*%
D11*
%TO.P,D2,1,K*%
%TO.N,Net-(D2-K)*%
X161439087Y-75385000D03*
D12*
%TO.P,D2,2,A*%
%TO.N,Q1*%
X161439087Y-77925000D03*
%TD*%
D19*
%TO.P,R17,1*%
%TO.N,Net-(U4-f)*%
X178479087Y-91000000D03*
%TO.P,R17,2*%
%TO.N,Net-(U7-F)*%
X181579087Y-91000000D03*
%TD*%
%TO.P,R15,1*%
%TO.N,Net-(U4-BI)*%
X178454087Y-87500000D03*
%TO.P,R15,2*%
%TO.N,+5V*%
X181554087Y-87500000D03*
%TD*%
%TO.P,R5,1*%
%TO.N,Net-(U4-a)*%
X178429087Y-99454087D03*
%TO.P,R5,2*%
%TO.N,Net-(U7-A)*%
X181529087Y-99454087D03*
%TD*%
D35*
%TO.N,GND*%
X132900000Y-99000000D03*
X134100000Y-99000000D03*
X134825735Y-99825735D03*
X135500000Y-101000000D03*
%TO.N,Q1*%
X143600000Y-93000000D03*
X140500000Y-95000000D03*
X142000000Y-93000000D03*
X140500000Y-98205000D03*
X134100000Y-101000000D03*
X132900000Y-100900000D03*
%TO.N,Clock*%
X131184620Y-101500000D03*
X134500000Y-96000000D03*
X129884620Y-101500000D03*
X133825735Y-97174265D03*
%TO.N,+5V*%
X149500000Y-121500000D03*
X130500000Y-106500000D03*
X145500000Y-122000000D03*
X130534620Y-104465380D03*
%TO.N,Reset*%
X132322500Y-95000000D03*
X131000000Y-95000000D03*
%TO.N,Q3*%
X161184620Y-87684620D03*
X160000000Y-86500000D03*
X148750000Y-85000000D03*
X145500000Y-84500000D03*
%TO.N,Clock*%
X143000000Y-110750000D03*
X143000000Y-109450000D03*
X141500000Y-98500000D03*
X141500000Y-97000000D03*
%TO.N,Reset*%
X149000000Y-98400000D03*
X148500000Y-99600000D03*
%TO.N,Q3*%
X162145331Y-96645331D03*
X162000000Y-94500000D03*
%TO.N,Net-(U4-e)*%
X176000000Y-97000000D03*
X175500000Y-106000000D03*
%TO.N,+5V*%
X148242120Y-84242120D03*
X147000000Y-83000000D03*
%TO.N,Q1*%
X161875000Y-85550000D03*
X156225000Y-93125000D03*
X162925000Y-87050000D03*
X154875000Y-94475000D03*
%TO.N,Q2*%
X168525000Y-87575000D03*
X168525000Y-85725000D03*
%TO.N,Q3*%
X165850000Y-85725000D03*
X168150000Y-83750000D03*
X161725000Y-90125000D03*
X161650000Y-92525000D03*
X162737880Y-88437120D03*
X170025000Y-83900000D03*
X163975000Y-87800000D03*
X164725000Y-87200000D03*
%TO.N,GND*%
X111550000Y-104750000D03*
X112675000Y-107975000D03*
X148225000Y-122725000D03*
X109900000Y-104750000D03*
X112600000Y-106675000D03*
X150325000Y-122725000D03*
%TO.N,+5V*%
X114975000Y-99550000D03*
X114975000Y-100850000D03*
X131875000Y-82375000D03*
X133075000Y-80825000D03*
%TO.N,Net-(U5-THR)*%
X109900000Y-106150000D03*
X111200000Y-106850000D03*
%TO.N,555*%
X108975000Y-106800000D03*
X109250000Y-100325000D03*
%TO.N,Net-(U7-G)*%
X184751605Y-96350000D03*
X184725000Y-97725000D03*
%TO.N,Net-(U7-E)*%
X184300000Y-98938087D03*
X183834620Y-98534620D03*
X182977880Y-97552880D03*
X184975000Y-100238087D03*
%TD*%
D36*
%TO.N,+5V*%
X177800000Y-85550000D02*
X173365000Y-89985000D01*
X180050000Y-85550000D02*
X177800000Y-85550000D01*
X184514087Y-87054087D02*
X181554087Y-87054087D01*
X181554087Y-87054087D02*
X180050000Y-85550000D01*
X173365000Y-89985000D02*
X172825000Y-89985000D01*
X187424087Y-89964087D02*
X184514087Y-87054087D01*
X187424087Y-93119087D02*
X187424087Y-89964087D01*
D37*
%TO.N,Net-(U7-F)*%
X181579087Y-91804087D02*
X185434087Y-95659087D01*
X181579087Y-91000000D02*
X181579087Y-91804087D01*
%TO.N,Net-(U4-BI)*%
X169576000Y-91424000D02*
X165935000Y-95065000D01*
X165935000Y-95065000D02*
X165205000Y-95065000D01*
X174076000Y-91424000D02*
X169576000Y-91424000D01*
X178000000Y-87500000D02*
X174076000Y-91424000D01*
X178454087Y-87500000D02*
X178000000Y-87500000D01*
X165205000Y-95065000D02*
X165205000Y-97605000D01*
X165205000Y-100145000D02*
X165205000Y-97605000D01*
%TO.N,+5V*%
X105737500Y-98262500D02*
X116262500Y-98262500D01*
X104550000Y-99450000D02*
X105737500Y-98262500D01*
X104550000Y-102200000D02*
X104550000Y-99450000D01*
D36*
X114975000Y-99550000D02*
X116262500Y-98262500D01*
D37*
%TO.N,Net-(U5-DIS)*%
X103000000Y-108975000D02*
X104550000Y-107425000D01*
X103000000Y-114000000D02*
X103000000Y-108975000D01*
X104000000Y-115000000D02*
X103000000Y-114000000D01*
X119000000Y-115000000D02*
X104000000Y-115000000D01*
X120500000Y-113500000D02*
X119000000Y-115000000D01*
X118285000Y-104785000D02*
X120500000Y-107000000D01*
X114975000Y-104785000D02*
X118285000Y-104785000D01*
X120500000Y-107000000D02*
X120500000Y-113500000D01*
X104550000Y-107425000D02*
X104550000Y-105300000D01*
%TO.N,Net-(U5-THR)*%
X106254000Y-105886000D02*
X107355000Y-104785000D01*
X105729000Y-110525000D02*
X106254000Y-110000000D01*
X106254000Y-110000000D02*
X106254000Y-105886000D01*
X104550000Y-110525000D02*
X105729000Y-110525000D01*
D36*
X107355000Y-104785000D02*
X107215000Y-104785000D01*
D37*
%TO.N,GND*%
X132900000Y-98100000D02*
X132775000Y-97975000D01*
X132900000Y-99000000D02*
X132900000Y-98100000D01*
X134825735Y-99725735D02*
X134100000Y-99000000D01*
X134825735Y-99825735D02*
X134825735Y-99725735D01*
X132775000Y-97975000D02*
X131722500Y-97975000D01*
X135500000Y-102520000D02*
X135500000Y-101000000D01*
X138205000Y-105225000D02*
X135500000Y-102520000D01*
%TO.N,+5V*%
X148625000Y-119050000D02*
X148600000Y-119075000D01*
X151100000Y-119050000D02*
X148625000Y-119050000D01*
X153600000Y-119050000D02*
X153625000Y-119075000D01*
X151100000Y-119050000D02*
X153600000Y-119050000D01*
X156300000Y-119075000D02*
X156325000Y-119050000D01*
X153625000Y-119075000D02*
X156300000Y-119075000D01*
X156375000Y-119100000D02*
X156325000Y-119050000D01*
X158850000Y-119100000D02*
X156375000Y-119100000D01*
%TO.N,Q1*%
X144075000Y-92525000D02*
X145825000Y-92525000D01*
X143600000Y-93000000D02*
X144075000Y-92525000D01*
X142000000Y-93500000D02*
X142000000Y-93000000D01*
X140500000Y-95000000D02*
X142000000Y-93500000D01*
X140500000Y-98500000D02*
X140500000Y-98205000D01*
X140000000Y-99000000D02*
X140500000Y-98500000D01*
X134500000Y-101000000D02*
X136500000Y-99000000D01*
X134100000Y-101000000D02*
X134500000Y-101000000D01*
X136500000Y-99000000D02*
X140000000Y-99000000D01*
X132800000Y-101000000D02*
X132900000Y-100900000D01*
X132000000Y-101000000D02*
X132800000Y-101000000D01*
X131722500Y-100722500D02*
X132000000Y-101000000D01*
X131722500Y-98925000D02*
X131722500Y-100722500D01*
%TO.N,Clock*%
X129884620Y-99362120D02*
X129447500Y-98925000D01*
X129884620Y-101500000D02*
X129884620Y-99362120D01*
X133500000Y-101500000D02*
X131184620Y-101500000D01*
X133500000Y-97500000D02*
X133500000Y-101500000D01*
X133825735Y-97174265D02*
X133500000Y-97500000D01*
X135435000Y-95065000D02*
X134500000Y-96000000D01*
X138205000Y-95065000D02*
X135435000Y-95065000D01*
D36*
%TO.N,+5V*%
X149500000Y-119975000D02*
X148600000Y-119075000D01*
X141500000Y-122000000D02*
X145500000Y-122000000D01*
X130500000Y-111000000D02*
X141500000Y-122000000D01*
X130500000Y-106500000D02*
X130500000Y-111000000D01*
X149500000Y-121500000D02*
X149500000Y-119975000D01*
X130534620Y-98636942D02*
X130534620Y-104465380D01*
X129872678Y-97975000D02*
X130534620Y-98636942D01*
X129447500Y-97975000D02*
X129872678Y-97975000D01*
D37*
%TO.N,Reset*%
X135105000Y-97605000D02*
X138205000Y-97605000D01*
X132500000Y-95000000D02*
X135105000Y-97605000D01*
X132322500Y-95000000D02*
X132500000Y-95000000D01*
X131000000Y-95472500D02*
X131000000Y-95000000D01*
X129447500Y-97025000D02*
X131000000Y-95472500D01*
%TO.N,Q3*%
X161184620Y-87684620D02*
X162175000Y-88675000D01*
D36*
X162175000Y-89675000D02*
X161725000Y-90125000D01*
D37*
X158500000Y-85000000D02*
X160000000Y-86500000D01*
X148750000Y-85000000D02*
X158500000Y-85000000D01*
X162175000Y-88675000D02*
X162175000Y-89675000D01*
X140000000Y-84500000D02*
X145500000Y-84500000D01*
X139500000Y-85000000D02*
X140000000Y-84500000D01*
X131722500Y-92777500D02*
X139500000Y-85000000D01*
X131722500Y-97025000D02*
X131722500Y-92777500D01*
%TO.N,Clock*%
X143375000Y-110750000D02*
X148600000Y-115975000D01*
X143000000Y-110750000D02*
X143375000Y-110750000D01*
X141500000Y-98500000D02*
X143000000Y-100000000D01*
X139565000Y-95065000D02*
X141500000Y-97000000D01*
X143000000Y-100000000D02*
X143000000Y-109450000D01*
X138205000Y-95065000D02*
X139565000Y-95065000D01*
%TO.N,Q0*%
X141985000Y-89985000D02*
X138205000Y-89985000D01*
X144105000Y-97605000D02*
X143000000Y-96500000D01*
X143000000Y-91000000D02*
X141985000Y-89985000D01*
X143000000Y-96500000D02*
X143000000Y-91000000D01*
X145825000Y-97605000D02*
X144105000Y-97605000D01*
%TO.N,Reset*%
X143105000Y-97605000D02*
X138205000Y-97605000D01*
X145645000Y-100145000D02*
X143105000Y-97605000D01*
X145825000Y-100145000D02*
X145645000Y-100145000D01*
X149795000Y-97605000D02*
X151705000Y-97605000D01*
X149000000Y-98400000D02*
X149795000Y-97605000D01*
X147955000Y-100145000D02*
X148500000Y-99600000D01*
X145825000Y-100145000D02*
X147955000Y-100145000D01*
X157381000Y-98201000D02*
X159325000Y-100145000D01*
X152301000Y-98201000D02*
X157381000Y-98201000D01*
X151705000Y-97605000D02*
X152301000Y-98201000D01*
%TO.N,Q0*%
X147220000Y-99000000D02*
X145825000Y-97605000D01*
X165205000Y-105205000D02*
X161500000Y-101500000D01*
X158000000Y-101500000D02*
X155500000Y-99000000D01*
X161500000Y-101500000D02*
X158000000Y-101500000D01*
X165205000Y-105225000D02*
X165205000Y-105205000D01*
X155500000Y-99000000D02*
X147220000Y-99000000D01*
D36*
%TO.N,Q3*%
X162145331Y-99625331D02*
X165205000Y-102685000D01*
X162145331Y-96645331D02*
X162145331Y-99625331D01*
X161650000Y-94150000D02*
X162000000Y-94500000D01*
X161650000Y-92525000D02*
X161650000Y-94150000D01*
D38*
%TO.N,Q2*%
X160125000Y-97605000D02*
X165205000Y-92525000D01*
X159325000Y-97605000D02*
X160125000Y-97605000D01*
D37*
%TO.N,Net-(U4-f)*%
X172825000Y-92525000D02*
X177758174Y-92525000D01*
X177758174Y-92525000D02*
X178479087Y-91804087D01*
%TO.N,Net-(U4-e)*%
X176120913Y-96879087D02*
X178479087Y-96879087D01*
X176000000Y-97000000D02*
X176120913Y-96879087D01*
X173735000Y-107765000D02*
X175500000Y-106000000D01*
X172825000Y-107765000D02*
X173735000Y-107765000D01*
%TO.N,Net-(U4-d)*%
X176075000Y-105225000D02*
X178379087Y-107529087D01*
X172825000Y-105225000D02*
X176075000Y-105225000D01*
%TO.N,Net-(U4-c)*%
X176285000Y-102685000D02*
X178379087Y-104779087D01*
X172825000Y-102685000D02*
X176285000Y-102685000D01*
%TO.N,Net-(U4-b)*%
X176445000Y-100145000D02*
X178379087Y-102079087D01*
X172825000Y-100145000D02*
X176445000Y-100145000D01*
%TO.N,Net-(U4-a)*%
X172825000Y-97605000D02*
X176580000Y-97605000D01*
X176580000Y-97605000D02*
X178429087Y-99454087D01*
%TO.N,Net-(U4-g)*%
X177768174Y-95065000D02*
X178479087Y-94354087D01*
X172825000Y-95065000D02*
X177768174Y-95065000D01*
D36*
%TO.N,+5V*%
X148100000Y-84384240D02*
X148100000Y-86225000D01*
X148242120Y-84242120D02*
X148100000Y-84384240D01*
X142575000Y-78575000D02*
X147000000Y-83000000D01*
X140075000Y-78575000D02*
X142575000Y-78575000D01*
%TO.N,Q1*%
X161439087Y-85114087D02*
X161875000Y-85550000D01*
D38*
X156225000Y-92675000D02*
X157625000Y-91275000D01*
D36*
X162925000Y-87705000D02*
X165205000Y-89985000D01*
D38*
X151705000Y-95065000D02*
X154285000Y-95065000D01*
D36*
X162925000Y-87050000D02*
X162925000Y-87705000D01*
D38*
X156225000Y-93125000D02*
X156225000Y-92675000D01*
X162250000Y-91275000D02*
X162350000Y-91375000D01*
X162350000Y-91375000D02*
X163740000Y-89985000D01*
X149850000Y-95050000D02*
X149865000Y-95065000D01*
X149865000Y-95065000D02*
X151705000Y-95065000D01*
D36*
X161439087Y-77925000D02*
X161439087Y-85114087D01*
D38*
X163740000Y-89985000D02*
X165205000Y-89985000D01*
X154285000Y-95065000D02*
X154875000Y-94475000D01*
X145825000Y-92525000D02*
X148350000Y-95050000D01*
X148350000Y-95050000D02*
X149850000Y-95050000D01*
X157625000Y-91275000D02*
X162250000Y-91275000D01*
%TO.N,Q2*%
X156550000Y-97650000D02*
X156850000Y-97650000D01*
D36*
X168525000Y-87575000D02*
X168525000Y-89205000D01*
X169289087Y-78050000D02*
X169289087Y-84960913D01*
D38*
X156895000Y-97605000D02*
X159325000Y-97605000D01*
D36*
X168525000Y-89205000D02*
X165205000Y-92525000D01*
D38*
X151705000Y-89985000D02*
X156550000Y-94830000D01*
X156850000Y-97650000D02*
X156895000Y-97605000D01*
X156550000Y-94830000D02*
X156550000Y-97650000D01*
D36*
X169289087Y-84960913D02*
X168525000Y-85725000D01*
%TO.N,Q3*%
X162737880Y-89112120D02*
X162175000Y-89675000D01*
X164575000Y-87200000D02*
X163975000Y-87800000D01*
X167825000Y-83750000D02*
X165850000Y-85725000D01*
X162737880Y-88437120D02*
X162737880Y-89112120D01*
X168150000Y-83750000D02*
X167825000Y-83750000D01*
X161650000Y-92525000D02*
X159325000Y-92525000D01*
X171279087Y-83900000D02*
X170025000Y-83900000D01*
X164725000Y-87200000D02*
X164575000Y-87200000D01*
X177339087Y-77840000D02*
X171279087Y-83900000D01*
%TO.N,Q0*%
X145415000Y-86150000D02*
X140025000Y-86150000D01*
X140025000Y-86150000D02*
X138205000Y-87970000D01*
X153550000Y-78015000D02*
X145415000Y-86150000D01*
X138205000Y-87970000D02*
X138205000Y-89985000D01*
%TO.N,GND*%
X116630000Y-112930000D02*
X113485000Y-112930000D01*
X117960000Y-111840000D02*
X116750000Y-113050000D01*
X156475000Y-125400000D02*
X154500000Y-125400000D01*
X134400000Y-70375000D02*
X133785000Y-70990000D01*
X117960000Y-110467500D02*
X117960000Y-111840000D01*
X116750000Y-113050000D02*
X116630000Y-112930000D01*
X147162500Y-122725000D02*
X143525000Y-119087500D01*
X140125000Y-70375000D02*
X134400000Y-70375000D01*
X151825000Y-122725000D02*
X150325000Y-122725000D01*
X107355000Y-102245000D02*
X109860000Y-104750000D01*
X148225000Y-122725000D02*
X147162500Y-122725000D01*
X133785000Y-73530000D02*
X133785000Y-70990000D01*
X112675000Y-107975000D02*
X113485000Y-108785000D01*
X111550000Y-104750000D02*
X111550000Y-105625000D01*
X113485000Y-108785000D02*
X113485000Y-112930000D01*
X133785000Y-76070000D02*
X133785000Y-73530000D01*
X111550000Y-105625000D02*
X112600000Y-106675000D01*
X153505000Y-58995000D02*
X153500000Y-59000000D01*
X109860000Y-104750000D02*
X109900000Y-104750000D01*
X161825000Y-58795000D02*
X161625000Y-58995000D01*
X154500000Y-125400000D02*
X151825000Y-122725000D01*
%TO.N,+5V*%
X171075000Y-86375000D02*
X172825000Y-88125000D01*
X128785001Y-97975000D02*
X129447500Y-97975000D01*
X140125000Y-78525000D02*
X140075000Y-78575000D01*
X196800000Y-89875000D02*
X195225000Y-88300000D01*
X110575000Y-109350000D02*
X110550000Y-109325000D01*
X107245000Y-109975000D02*
X107355000Y-109865000D01*
X126375000Y-87875000D02*
X126375000Y-93725000D01*
X195225000Y-88300000D02*
X188950000Y-88300000D01*
X110360000Y-112930000D02*
X110360000Y-112870000D01*
X161575000Y-86375000D02*
X171075000Y-86375000D01*
X187424087Y-89375913D02*
X187424087Y-93119087D01*
X196800000Y-101775000D02*
X196800000Y-89875000D01*
X126375000Y-95564999D02*
X128785001Y-97975000D01*
X159325000Y-88250000D02*
X159325000Y-89985000D01*
X188950000Y-88300000D02*
X188725000Y-88075000D01*
X111280000Y-102245000D02*
X114975000Y-102245000D01*
X140125000Y-72375000D02*
X140125000Y-78525000D01*
X133785000Y-80115000D02*
X133075000Y-80825000D01*
X120800000Y-93725000D02*
X126375000Y-93725000D01*
X145825000Y-89985000D02*
X145825000Y-88500000D01*
X131875000Y-82375000D02*
X126375000Y-87875000D01*
X145825000Y-88500000D02*
X148100000Y-86225000D01*
X133820000Y-78575000D02*
X133785000Y-78610000D01*
X195295913Y-103279087D02*
X196800000Y-101775000D01*
X110550000Y-102975000D02*
X111280000Y-102245000D01*
X148100000Y-86225000D02*
X157300000Y-86225000D01*
X133785000Y-78610000D02*
X133785000Y-80115000D01*
X110550000Y-109325000D02*
X110550000Y-102975000D01*
X140075000Y-78575000D02*
X133820000Y-78575000D01*
X107355000Y-109865000D02*
X110060000Y-109865000D01*
X172825000Y-88125000D02*
X172825000Y-89985000D01*
X159325000Y-89985000D02*
X159325000Y-88625000D01*
X126375000Y-93725000D02*
X126375000Y-95564999D01*
X188725000Y-88075000D02*
X187424087Y-89375913D01*
X159325000Y-88625000D02*
X161575000Y-86375000D01*
X110360000Y-112870000D02*
X107355000Y-109865000D01*
X192504087Y-103279087D02*
X195295913Y-103279087D01*
X116262500Y-98262500D02*
X120800000Y-93725000D01*
X114975000Y-102245000D02*
X114975000Y-100850000D01*
X110060000Y-109865000D02*
X110575000Y-109350000D01*
X157300000Y-86225000D02*
X159325000Y-88250000D01*
%TO.N,Net-(U5-THR)*%
X109900000Y-106150000D02*
X108535000Y-104785000D01*
X114975000Y-107325000D02*
X111675000Y-107325000D01*
X111675000Y-107325000D02*
X111200000Y-106850000D01*
X114992500Y-107342500D02*
X114975000Y-107325000D01*
X108535000Y-104785000D02*
X107355000Y-104785000D01*
X117960000Y-107342500D02*
X114992500Y-107342500D01*
%TO.N,Net-(U7-F)*%
X185434087Y-95659087D02*
X187424087Y-95659087D01*
D38*
%TO.N,VD*%
X117575000Y-72125000D02*
X125030000Y-72125000D01*
X110067500Y-79400000D02*
X110075000Y-79400000D01*
X115250000Y-79425000D02*
X117575000Y-77100000D01*
X117575000Y-77100000D02*
X117575000Y-72125000D01*
X110100000Y-79425000D02*
X115250000Y-79425000D01*
X125030000Y-72125000D02*
X126165000Y-70990000D01*
X110075000Y-79400000D02*
X110100000Y-79425000D01*
D36*
%TO.N,Net-(D4-K)*%
X129825000Y-73425000D02*
X127180000Y-76070000D01*
X127180000Y-76070000D02*
X126165000Y-76070000D01*
X129825000Y-67650000D02*
X129825000Y-73425000D01*
X126165000Y-76582240D02*
X126165000Y-76070000D01*
X131157760Y-81575000D02*
X126165000Y-76582240D01*
X124975000Y-62800000D02*
X129825000Y-67650000D01*
X140075000Y-81575000D02*
X131157760Y-81575000D01*
%TO.N,Net-(D3-K)*%
X169200000Y-75420913D02*
X169289087Y-75510000D01*
X169200000Y-68955000D02*
X169200000Y-75420913D01*
%TO.N,Net-(D2-K)*%
X161625000Y-75199087D02*
X161439087Y-75385000D01*
X161625000Y-69155000D02*
X161625000Y-75199087D01*
%TO.N,Net-(U7-B)*%
X189475000Y-98688174D02*
X192504087Y-95659087D01*
X189313087Y-99588087D02*
X189325000Y-99600000D01*
X183325000Y-100233174D02*
X183325000Y-99600000D01*
X189325000Y-99600000D02*
X189475000Y-99450000D01*
X183336913Y-99588087D02*
X189313087Y-99588087D01*
X189475000Y-99450000D02*
X189475000Y-98688174D01*
X183325000Y-99600000D02*
X183336913Y-99588087D01*
X181479087Y-102079087D02*
X183325000Y-100233174D01*
%TO.N,Net-(D5-K)*%
X177325000Y-75285913D02*
X177339087Y-75300000D01*
X177325000Y-68955000D02*
X177325000Y-75285913D01*
%TO.N,Net-(U2A-J)*%
X138205000Y-102685000D02*
X138205000Y-100145000D01*
X151100000Y-115950000D02*
X145250000Y-110100000D01*
X141050000Y-105530000D02*
X138205000Y-102685000D01*
X145250000Y-110100000D02*
X141050000Y-110100000D01*
X141050000Y-110100000D02*
X141050000Y-105530000D01*
%TO.N,Net-(U7-D)*%
X187424087Y-104475913D02*
X184370913Y-107529087D01*
X187424087Y-103279087D02*
X187424087Y-104475913D01*
X184370913Y-107529087D02*
X181479087Y-107529087D01*
%TO.N,555*%
X109375000Y-100200000D02*
X123350000Y-100200000D01*
X109250000Y-100325000D02*
X109375000Y-100200000D01*
X107355000Y-107325000D02*
X108450000Y-107325000D01*
X108450000Y-107325000D02*
X108975000Y-106800000D01*
%TO.N,Net-(D1-K)*%
X153500000Y-69160000D02*
X153500000Y-75425000D01*
X153500000Y-75425000D02*
X153550000Y-75475000D01*
%TO.N,Net-(SW2-C)*%
X127350000Y-102200000D02*
X123350000Y-102200000D01*
X143525000Y-115962500D02*
X141112500Y-115962500D01*
X141112500Y-115962500D02*
X127350000Y-102200000D01*
X143525000Y-115962500D02*
X146062500Y-115962500D01*
X146062500Y-115962500D02*
X146075000Y-115975000D01*
%TO.N,Net-(U7-G)*%
X181579087Y-94354087D02*
X182755692Y-94354087D01*
X184725000Y-97725000D02*
X186950000Y-97725000D01*
X186950000Y-97725000D02*
X187424087Y-98199087D01*
X182755692Y-94354087D02*
X184751605Y-96350000D01*
%TO.N,Net-(U7-A)*%
X189250000Y-96775000D02*
X189250000Y-96373174D01*
X184450000Y-97000000D02*
X189025000Y-97000000D01*
X181529087Y-99454087D02*
X181995913Y-99454087D01*
X189025000Y-97000000D02*
X189250000Y-96775000D01*
X181995913Y-99454087D02*
X184450000Y-97000000D01*
X189250000Y-96373174D02*
X192504087Y-93119087D01*
%TO.N,Net-(R13-Pad1)*%
X146075000Y-119500000D02*
X146075000Y-119075000D01*
X156475000Y-129900000D02*
X146075000Y-119500000D01*
X156475000Y-129900000D02*
X162975000Y-129900000D01*
%TO.N,Net-(U7-E)*%
X182252880Y-97552880D02*
X181579087Y-96879087D01*
X184300000Y-98938087D02*
X184238087Y-98938087D01*
X182977880Y-97552880D02*
X182252880Y-97552880D01*
X187424087Y-100739087D02*
X185476000Y-100739087D01*
X185476000Y-100739087D02*
X184975000Y-100238087D01*
X184238087Y-98938087D02*
X183834620Y-98534620D01*
%TO.N,Net-(U7-C)*%
X185425000Y-102000000D02*
X189175000Y-102000000D01*
X182645913Y-104779087D02*
X185425000Y-102000000D01*
X189175000Y-102000000D02*
X189175000Y-101528174D01*
X189175000Y-101528174D02*
X192504087Y-98199087D01*
X181479087Y-104779087D02*
X182645913Y-104779087D01*
%TO.N,Net-(U3A-J)*%
X156325000Y-107305000D02*
X151705000Y-102685000D01*
X156325000Y-115950000D02*
X156325000Y-107305000D01*
X151705000Y-102685000D02*
X151705000Y-100145000D01*
%TO.N,Net-(U2B-J)*%
X148825000Y-108225000D02*
X145825000Y-105225000D01*
X148825000Y-109750000D02*
X148825000Y-108225000D01*
X153625000Y-115975000D02*
X153625000Y-114550000D01*
X145825000Y-105225000D02*
X145825000Y-102685000D01*
X153625000Y-114550000D02*
X148825000Y-109750000D01*
D38*
%TO.N,Clock*%
X124075000Y-98925000D02*
X129447500Y-98925000D01*
X123350000Y-98200000D02*
X124075000Y-98925000D01*
D36*
%TO.N,Net-(U3B-J)*%
X158850000Y-116000000D02*
X160550000Y-116000000D01*
X159325000Y-105225000D02*
X159325000Y-102685000D01*
X160550000Y-116000000D02*
X162500000Y-114050000D01*
X162450000Y-106225000D02*
X161450000Y-105225000D01*
X162500000Y-106225000D02*
X162450000Y-106225000D01*
X161450000Y-105225000D02*
X159325000Y-105225000D01*
X162500000Y-114050000D02*
X162500000Y-106225000D01*
%TD*%
M02*
