%TF.GenerationSoftware,KiCad,Pcbnew,9.0.3*%
%TF.CreationDate,2025-12-16T11:33:00+01:00*%
%TF.ProjectId,Crnic_PTP_Project1,43726e69-635f-4505-9450-5f50726f6a65,rev?*%
%TF.SameCoordinates,Original*%
%TF.FileFunction,Paste,Top*%
%TF.FilePolarity,Positive*%
%FSLAX46Y46*%
G04 Gerber Fmt 4.6, Leading zero omitted, Abs format (unit mm)*
G04 Created by KiCad (PCBNEW 9.0.3) date 2025-12-16 11:33:00*
%MOMM*%
%LPD*%
G01*
G04 APERTURE LIST*
G04 Aperture macros list*
%AMRoundRect*
0 Rectangle with rounded corners*
0 $1 Rounding radius*
0 $2 $3 $4 $5 $6 $7 $8 $9 X,Y pos of 4 corners*
0 Add a 4 corners polygon primitive as box body*
4,1,4,$2,$3,$4,$5,$6,$7,$8,$9,$2,$3,0*
0 Add four circle primitives for the rounded corners*
1,1,$1+$1,$2,$3*
1,1,$1+$1,$4,$5*
1,1,$1+$1,$6,$7*
1,1,$1+$1,$8,$9*
0 Add four rect primitives between the rounded corners*
20,1,$1+$1,$2,$3,$4,$5,0*
20,1,$1+$1,$4,$5,$6,$7,0*
20,1,$1+$1,$6,$7,$8,$9,0*
20,1,$1+$1,$8,$9,$2,$3,0*%
G04 Aperture macros list end*
%ADD10RoundRect,0.250000X-0.625000X0.400000X-0.625000X-0.400000X0.625000X-0.400000X0.625000X0.400000X0*%
%ADD11RoundRect,0.250000X0.625000X-0.400000X0.625000X0.400000X-0.625000X0.400000X-0.625000X-0.400000X0*%
%ADD12RoundRect,0.250000X-0.412500X-0.650000X0.412500X-0.650000X0.412500X0.650000X-0.412500X0.650000X0*%
%ADD13RoundRect,0.250000X-0.400000X-0.625000X0.400000X-0.625000X0.400000X0.625000X-0.400000X0.625000X0*%
%ADD14RoundRect,0.250000X-0.650000X0.412500X-0.650000X-0.412500X0.650000X-0.412500X0.650000X0.412500X0*%
%ADD15RoundRect,0.250000X0.650000X-0.412500X0.650000X0.412500X-0.650000X0.412500X-0.650000X-0.412500X0*%
%ADD16RoundRect,0.150000X0.512500X0.150000X-0.512500X0.150000X-0.512500X-0.150000X0.512500X-0.150000X0*%
G04 APERTURE END LIST*
D10*
%TO.C,R19*%
X104550000Y-105300000D03*
X104550000Y-102200000D03*
%TD*%
D11*
%TO.C,R9*%
X151100000Y-119050000D03*
X151100000Y-115950000D03*
%TD*%
D12*
%TO.C,C4*%
X110360000Y-112930000D03*
X113485000Y-112930000D03*
%TD*%
D11*
%TO.C,R13*%
X146075000Y-119075000D03*
X146075000Y-115975000D03*
%TD*%
D13*
%TO.C,R8*%
X178379087Y-104779087D03*
X181479087Y-104779087D03*
%TD*%
%TO.C,R14*%
X178500000Y-108500000D03*
X181600000Y-108500000D03*
%TD*%
%TO.C,R18*%
X178479087Y-94354087D03*
X181579087Y-94354087D03*
%TD*%
D11*
%TO.C,R10*%
X153625000Y-119075000D03*
X153625000Y-115975000D03*
%TD*%
D13*
%TO.C,R16*%
X178479087Y-96879087D03*
X181579087Y-96879087D03*
%TD*%
D10*
%TO.C,R20*%
X104550000Y-107425000D03*
X104550000Y-110525000D03*
%TD*%
D14*
%TO.C,C5*%
X117960000Y-107342500D03*
X117960000Y-110467500D03*
%TD*%
D11*
%TO.C,R7*%
X148600000Y-119075000D03*
X148600000Y-115975000D03*
%TD*%
%TO.C,R11*%
X156325000Y-119050000D03*
X156325000Y-115950000D03*
%TD*%
D15*
%TO.C,C3*%
X143525000Y-119087500D03*
X143525000Y-115962500D03*
%TD*%
D16*
%TO.C,U6*%
X131722500Y-98925000D03*
X131722500Y-97975000D03*
X131722500Y-97025000D03*
X129447500Y-97025000D03*
X129447500Y-97975000D03*
X129447500Y-98925000D03*
%TD*%
D11*
%TO.C,R12*%
X158850000Y-119100000D03*
X158850000Y-116000000D03*
%TD*%
D13*
%TO.C,R6*%
X178379087Y-102079087D03*
X181479087Y-102079087D03*
%TD*%
%TO.C,R17*%
X178479087Y-91000000D03*
X181579087Y-91000000D03*
%TD*%
%TO.C,R15*%
X178454087Y-87500000D03*
X181554087Y-87500000D03*
%TD*%
%TO.C,R5*%
X178429087Y-99454087D03*
X181529087Y-99454087D03*
%TD*%
M02*
